<svg width="29" height="29" viewBox="0 0 29 29" fill="none" xmlns="http://www.w3.org/2000/svg">
<g clip-path="url(#clip0_6_16409)">
<path d="M3.625 10.8752C3.625 10.2342 3.87961 9.61953 4.33283 9.16632C4.78604 8.71311 5.40073 8.4585 6.04167 8.4585H22.9583C23.5993 8.4585 24.214 8.71311 24.6672 9.16632C25.1204 9.61953 25.375 10.2342 25.375 10.8752V21.7502C25.375 22.3911 25.1204 23.0058 24.6672 23.459C24.214 23.9122 23.5993 24.1668 22.9583 24.1668H6.04167C5.40073 24.1668 4.78604 23.9122 4.33283 23.459C3.87961 23.0058 3.625 22.3911 3.625 21.7502V10.8752Z" stroke="black" stroke-width="1.5" stroke-linecap="round" stroke-linejoin="round"/>
<path d="M9.66669 8.45833V6.04167C9.66669 5.40073 9.9213 4.78604 10.3745 4.33283C10.8277 3.87961 11.4424 3.625 12.0834 3.625H16.9167C17.5576 3.625 18.1723 3.87961 18.6255 4.33283C19.0787 4.78604 19.3334 5.40073 19.3334 6.04167V8.45833" stroke="black" stroke-width="1.5" stroke-linecap="round" stroke-linejoin="round"/>
</g>
<defs>
<clipPath id="clip0_6_16409">
<rect width="29" height="29" fill="white"/>
</clipPath>
</defs>
</svg>
