<svg width="29" height="29" viewBox="0 0 29 29" fill="none" xmlns="http://www.w3.org/2000/svg">
<path d="M21.75 9.6665C22.7114 9.6665 23.6334 10.0484 24.3133 10.7282C24.9931 11.4081 25.375 12.3301 25.375 13.2915C25.375 14.2529 24.9931 15.1749 24.3133 15.8548C23.6334 16.5346 22.7114 16.9165 21.75 16.9165" stroke="black" stroke-width="1.5" stroke-linecap="round" stroke-linejoin="round"/>
<path d="M12.0833 9.6665V22.9582C12.0833 23.2786 11.956 23.586 11.7294 23.8126C11.5028 24.0392 11.1954 24.1665 10.875 24.1665H9.66665C9.34618 24.1665 9.03883 24.0392 8.81223 23.8126C8.58562 23.586 8.45831 23.2786 8.45831 22.9582V16.9165" stroke="black" stroke-width="1.5" stroke-linecap="round" stroke-linejoin="round"/>
<path d="M14.5 9.66668L19.9665 5.11127C20.1253 4.97897 20.3186 4.89468 20.5236 4.86828C20.7287 4.84188 20.937 4.87447 21.1241 4.96222C21.3113 5.04997 21.4696 5.18926 21.5804 5.36375C21.6913 5.53824 21.7501 5.74071 21.75 5.94743V20.6359C21.7501 20.8427 21.6913 21.0451 21.5804 21.2196C21.4696 21.3941 21.3113 21.5334 21.1241 21.6211C20.937 21.7089 20.7287 21.7415 20.5236 21.7151C20.3186 21.6887 20.1253 21.6044 19.9665 21.4721L14.5 16.9167H4.83333C4.51286 16.9167 4.20552 16.7894 3.97891 16.5628C3.75231 16.3362 3.625 16.0288 3.625 15.7084V10.875C3.625 10.5545 3.75231 10.2472 3.97891 10.0206C4.20552 9.79399 4.51286 9.66668 4.83333 9.66668H14.5Z" stroke="black" stroke-width="1.5" stroke-linecap="round" stroke-linejoin="round"/>
</svg>
