<svg width="29" height="29" viewBox="0 0 29 29" fill="none" xmlns="http://www.w3.org/2000/svg">
<path d="M12.2162 13.4731H9.01414C8.25289 13.4731 7.63666 14.0893 7.63666 14.8506V21.0372H12.2162V13.4731V13.4731Z" stroke="black" stroke-width="1.5" stroke-miterlimit="10" stroke-linecap="round" stroke-linejoin="round"/>
<path d="M15.4199 7.9751H13.5832C12.8219 7.9751 12.2057 8.59137 12.2057 9.35262V21.0252H16.7853V9.35262C16.7853 8.59137 16.1811 7.9751 15.4199 7.9751Z" stroke="black" stroke-width="1.5" stroke-miterlimit="10" stroke-linecap="round" stroke-linejoin="round"/>
<path d="M19.9957 15.5273H16.7936V21.0253H21.3732V16.9049C21.3611 16.1436 20.7448 15.5273 19.9957 15.5273Z" stroke="black" stroke-width="1.5" stroke-miterlimit="10" stroke-linecap="round" stroke-linejoin="round"/>
<path d="M10.875 26.5832H18.125C24.1667 26.5832 26.5834 24.1665 26.5834 18.1248V10.8748C26.5834 4.83317 24.1667 2.4165 18.125 2.4165H10.875C4.83335 2.4165 2.41669 4.83317 2.41669 10.8748V18.1248C2.41669 24.1665 4.83335 26.5832 10.875 26.5832Z" stroke="black" stroke-width="1.5" stroke-linecap="round" stroke-linejoin="round"/>
</svg>
