<svg width="29" height="29" viewBox="0 0 29 29" fill="none" xmlns="http://www.w3.org/2000/svg">
<path d="M9.99343 27.4899H5.11176C2.68301 27.4899 1.51093 26.3662 1.51093 24.0462V4.95449C1.51093 2.63449 2.69509 1.51074 5.11176 1.51074H9.99343C12.4222 1.51074 13.5943 2.63449 13.5943 4.95449V24.0462C13.5943 26.3662 12.4101 27.4899 9.99343 27.4899ZM5.11176 3.32324C3.57718 3.32324 3.32343 3.73408 3.32343 4.95449V24.0462C3.32343 25.2666 3.57718 25.6774 5.11176 25.6774H9.99343C11.528 25.6774 11.7818 25.2666 11.7818 24.0462V4.95449C11.7818 3.73408 11.528 3.32324 9.99343 3.32324H5.11176Z" fill="black"/>
<path d="M23.8886 16.6149H19.0069C16.5781 16.6149 15.4061 15.4912 15.4061 13.1712V4.95449C15.4061 2.63449 16.5902 1.51074 19.0069 1.51074H23.8886C26.3173 1.51074 27.4894 2.63449 27.4894 4.95449V13.1712C27.4894 15.4912 26.3052 16.6149 23.8886 16.6149ZM19.0069 3.32324C17.4723 3.32324 17.2186 3.73408 17.2186 4.95449V13.1712C17.2186 14.3916 17.4723 14.8024 19.0069 14.8024H23.8886C25.4232 14.8024 25.6769 14.3916 25.6769 13.1712V4.95449C25.6769 3.73408 25.4232 3.32324 23.8886 3.32324H19.0069Z" fill="black"/>
<path d="M23.8886 27.4893H19.0069C16.5781 27.4893 15.4061 26.3655 15.4061 24.0455V21.8705C15.4061 19.5505 16.5902 18.4268 19.0069 18.4268H23.8886C26.3173 18.4268 27.4894 19.5505 27.4894 21.8705V24.0455C27.4894 26.3655 26.3052 27.4893 23.8886 27.4893ZM19.0069 20.2393C17.4723 20.2393 17.2186 20.6501 17.2186 21.8705V24.0455C17.2186 25.2659 17.4723 25.6768 19.0069 25.6768H23.8886C25.4232 25.6768 25.6769 25.2659 25.6769 24.0455V21.8705C25.6769 20.6501 25.4232 20.2393 23.8886 20.2393H19.0069Z" fill="black"/>
</svg>
