<svg width="170" height="42" viewBox="0 0 170 42" fill="none" xmlns="http://www.w3.org/2000/svg">
<path d="M1.15942 32V11.2359H10.9969V14.6439H6.25382V19.4221H10.3996V23.2517H6.25382V28.6623H10.9969V32H1.15942ZM18.6931 32.2811C17.1472 32.2811 15.941 32.0937 15.0743 31.7189C14.2311 31.3207 13.6456 30.7235 13.3176 29.9271C12.9897 29.1073 12.8258 28.1001 12.8258 26.9056V25.6408H17.604V27.9596C17.604 28.5686 17.6742 29.0136 17.8148 29.2947C17.9553 29.5758 18.2364 29.7163 18.658 29.7163C19.0093 29.7163 19.2553 29.5992 19.3958 29.365C19.5597 29.1307 19.6417 28.8028 19.6417 28.3812V26.9056C19.6417 26.32 19.5246 25.8867 19.2904 25.6056C19.0796 25.3012 18.7517 25.0552 18.3066 24.8678C17.8616 24.6805 17.3229 24.4579 16.6905 24.2003C16.1283 23.9661 15.5779 23.6967 15.0392 23.3922C14.5239 23.0643 14.0906 22.631 13.7392 22.0923C13.4113 21.5535 13.2474 20.8626 13.2474 20.0194V19.0356C13.2474 17.4663 13.669 16.2952 14.5122 15.5222C15.3554 14.7259 16.8896 14.3277 19.1147 14.3277C20.5903 14.3277 21.738 14.5151 22.5578 14.8898C23.3776 15.2412 23.9515 15.8033 24.2794 16.5763C24.6073 17.3492 24.7713 18.3095 24.7713 19.4572V20.6518H20.1336V18.614C20.1336 17.9816 20.0633 17.5366 19.9228 17.2789C19.7823 16.9979 19.5246 16.8573 19.1499 16.8573C18.7517 16.8573 18.4823 16.9861 18.3418 17.2438C18.2012 17.478 18.131 17.7708 18.131 18.1221V19.5626C18.131 20.1013 18.2949 20.523 18.6228 20.8274C18.9508 21.1319 19.3607 21.3662 19.8525 21.5301C20.3678 21.6941 20.8714 21.8697 21.3633 22.0571C21.9488 22.2679 22.4993 22.5256 23.0146 22.8301C23.5299 23.1346 23.9515 23.5445 24.2794 24.0598C24.6073 24.5751 24.7713 25.2426 24.7713 26.0624V27.2218C24.7713 28.3227 24.5839 29.2479 24.2091 29.9974C23.8344 30.7469 23.2137 31.3207 22.347 31.7189C21.4804 32.0937 20.2624 32.2811 18.6931 32.2811ZM32.7793 32.1405C32.2172 32.1405 31.6433 32.0937 31.0577 32C30.4956 31.9063 29.9686 31.7306 29.4767 31.473C29.0083 31.1919 28.6218 30.7937 28.3173 30.2784C28.0362 29.7397 27.8957 29.0136 27.8957 28.1001V17.3843H26.2093V15.0304L28.3173 14.6088L28.9848 11.4116H32.6739V14.6088H35.8008V17.3843H32.6739V27.2569C32.6739 27.6785 32.7559 28.0767 32.9198 28.4515C33.0838 28.8028 33.4703 28.9785 34.0793 28.9785C34.3837 28.9785 34.7351 28.9668 35.1333 28.9434C35.5315 28.8965 35.754 28.8731 35.8008 28.8731V31.7189C35.754 31.7189 35.4143 31.7892 34.7819 31.9297C34.1729 32.0703 33.5054 32.1405 32.7793 32.1405ZM40.9301 32.2811C40.2977 32.2811 39.7121 32.1874 39.1734 32C38.6581 31.836 38.2365 31.5081 37.9086 31.0163C37.6041 30.501 37.4518 29.7514 37.4518 28.7677V26.1678C37.4518 25.1138 37.7563 24.2588 38.3653 23.603C38.9977 22.9238 40.0283 22.3382 41.4571 21.8463C42.1598 21.5653 42.6985 21.331 43.0732 21.1437C43.4714 20.9328 43.7525 20.6752 43.9164 20.3707C44.0804 20.0428 44.1624 19.5861 44.1624 19.0005V17.9465C44.1624 17.6888 44.1155 17.478 44.0218 17.3141C43.9516 17.1501 43.8345 17.0213 43.6705 16.9276C43.53 16.8339 43.3543 16.7871 43.1435 16.7871C42.7453 16.7871 42.476 16.9627 42.3354 17.3141C42.1949 17.6654 42.1246 18.2861 42.1246 19.1762V20.6518H37.8032V18.7194C37.8032 17.8528 37.932 17.0916 38.1896 16.4357C38.4473 15.7565 38.9509 15.2295 39.7004 14.8547C40.4733 14.4565 41.621 14.2574 43.1435 14.2574C44.6894 14.2574 45.8839 14.3862 46.7272 14.6439C47.5704 14.8781 48.1559 15.2997 48.4838 15.9087C48.8352 16.4943 49.0109 17.3024 49.0109 18.3329V32H44.2327V30.173C44.0687 30.8055 43.6588 31.3207 43.003 31.7189C42.3706 32.0937 41.6796 32.2811 40.9301 32.2811ZM43.0381 29.1542C43.4831 29.1542 43.7759 28.9785 43.9164 28.6272C44.057 28.2524 44.1273 27.702 44.1273 26.9759V23.0057C44.057 23.1697 43.893 23.3219 43.6354 23.4625C43.4012 23.5796 43.1786 23.7201 42.9678 23.8841C42.6633 24.1183 42.4291 24.3525 42.2652 24.5868C42.1246 24.821 42.0544 25.1606 42.0544 25.6056V27.5731C42.0544 27.9245 42.0895 28.2173 42.1598 28.4515C42.23 28.6857 42.3354 28.8614 42.476 28.9785C42.6165 29.0956 42.8039 29.1542 43.0381 29.1542ZM57.233 32.1405C56.6708 32.1405 56.097 32.0937 55.5114 32C54.9493 31.9063 54.4223 31.7306 53.9304 31.473C53.462 31.1919 53.0755 30.7937 52.771 30.2784C52.4899 29.7397 52.3494 29.0136 52.3494 28.1001V17.3843H50.663V15.0304L52.771 14.6088L53.4385 11.4116H57.1276V14.6088H60.2545V17.3843H57.1276V27.2569C57.1276 27.6785 57.2096 28.0767 57.3735 28.4515C57.5375 28.8028 57.924 28.9785 58.5329 28.9785C58.8374 28.9785 59.1888 28.9668 59.587 28.9434C59.9851 28.8965 60.2077 28.8731 60.2545 28.8731V31.7189C60.2077 31.7189 59.868 31.7892 59.2356 31.9297C58.6266 32.0703 57.9591 32.1405 57.233 32.1405ZM67.741 32.2811C66.523 32.2811 65.4807 32.1522 64.6141 31.8946C63.7475 31.6135 63.0799 31.0514 62.6115 30.2082C62.143 29.3415 61.9088 28.0299 61.9088 26.2732V18.8248C61.9088 17.0681 62.4007 15.8736 63.3844 15.2412C64.3916 14.5853 65.8438 14.2574 67.741 14.2574C69.6148 14.2574 71.0436 14.5853 72.0273 15.2412C73.0111 15.8736 73.503 17.0681 73.503 18.8248V23.6733H66.687V28.3109C66.687 28.8731 66.769 29.2596 66.9329 29.4704C67.1203 29.6812 67.3897 29.7866 67.741 29.7866C68.0924 29.7866 68.3383 29.6812 68.4788 29.4704C68.6428 29.2596 68.7248 28.8731 68.7248 28.3109V25.3597H73.503V26.2381C73.503 28.0182 73.2687 29.3415 72.8003 30.2082C72.3553 31.0514 71.6994 31.6135 70.8328 31.8946C69.9896 32.1522 68.959 32.2811 67.741 32.2811ZM66.687 21.5653H68.7248V18.5437C68.7248 18.005 68.6428 17.6303 68.4788 17.4195C68.3383 17.2087 68.0924 17.1033 67.741 17.1033C67.3897 17.1033 67.1203 17.2087 66.9329 17.4195C66.769 17.6303 66.687 18.005 66.687 18.5437V21.5653Z" fill="#37B7FE"/>
<path d="M85.5713 32V11.2359H95.4088V14.6439H90.6657V19.4221H94.8115V23.2517H90.6657V32H85.5713ZM100.442 32.2811C99.8099 32.2811 99.2243 32.1874 98.6856 32C98.1703 31.836 97.7487 31.5081 97.4208 31.0163C97.1163 30.501 96.964 29.7514 96.964 28.7677V26.1678C96.964 25.1138 97.2685 24.2588 97.8775 23.603C98.5099 22.9238 99.5405 22.3382 100.969 21.8463C101.672 21.5653 102.211 21.331 102.585 21.1437C102.984 20.9328 103.265 20.6752 103.429 20.3707C103.593 20.0428 103.675 19.5861 103.675 19.0005V17.9465C103.675 17.6888 103.628 17.478 103.534 17.3141C103.464 17.1501 103.347 17.0213 103.183 16.9276C103.042 16.8339 102.867 16.7871 102.656 16.7871C102.258 16.7871 101.988 16.9627 101.848 17.3141C101.707 17.6654 101.637 18.2861 101.637 19.1762V20.6518H97.3154V18.7194C97.3154 17.8528 97.4442 17.0916 97.7018 16.4357C97.9595 15.7565 98.4631 15.2295 99.2126 14.8547C99.9855 14.4565 101.133 14.2574 102.656 14.2574C104.202 14.2574 105.396 14.3862 106.239 14.6439C107.083 14.8781 107.668 15.2997 107.996 15.9087C108.347 16.4943 108.523 17.3024 108.523 18.3329V32H103.745V30.173C103.581 30.8055 103.171 31.3207 102.515 31.7189C101.883 32.0937 101.192 32.2811 100.442 32.2811ZM102.55 29.1542C102.995 29.1542 103.288 28.9785 103.429 28.6272C103.569 28.2524 103.639 27.702 103.639 26.9759V23.0057C103.569 23.1697 103.405 23.3219 103.148 23.4625C102.913 23.5796 102.691 23.7201 102.48 23.8841C102.176 24.1183 101.941 24.3525 101.777 24.5868C101.637 24.821 101.567 25.1606 101.567 25.6056V27.5731C101.567 27.9245 101.602 28.2173 101.672 28.4515C101.742 28.6857 101.848 28.8614 101.988 28.9785C102.129 29.0956 102.316 29.1542 102.55 29.1542ZM116.605 32.2811C115.387 32.2811 114.344 32.1522 113.478 31.8946C112.611 31.637 111.944 31.0865 111.475 30.2433C111.007 29.4001 110.772 28.1236 110.772 26.4137V19.141C110.772 17.2906 111.264 16.0258 112.248 15.3466C113.255 14.6673 114.707 14.3277 116.605 14.3277C118.478 14.3277 119.907 14.6556 120.891 15.3114C121.875 15.9438 122.367 17.115 122.367 18.8248V21.495H117.588V18.5437C117.588 18.005 117.506 17.6303 117.342 17.4195C117.202 17.2087 116.956 17.1033 116.605 17.1033C116.253 17.1033 115.984 17.2087 115.797 17.4195C115.633 17.6303 115.551 18.005 115.551 18.5437V28.0299C115.551 28.5686 115.633 28.9551 115.797 29.1893C115.984 29.4001 116.253 29.5055 116.605 29.5055C116.956 29.5055 117.202 29.4001 117.342 29.1893C117.506 28.9785 117.588 28.592 117.588 28.0299V24.7273H122.367V26.3786C122.367 28.1119 122.132 29.4001 121.664 30.2433C121.219 31.0865 120.563 31.637 119.696 31.8946C118.853 32.1522 117.823 32.2811 116.605 32.2811ZM124.686 32V14.6088H129.464V32H124.686ZM127.04 12.7818C126.455 12.7818 125.939 12.5827 125.494 12.1845C125.073 11.7629 124.862 11.2593 124.862 10.6738C124.862 10.0882 125.073 9.59634 125.494 9.19815C125.939 8.77655 126.455 8.56574 127.04 8.56574C127.649 8.56574 128.164 8.77655 128.586 9.19815C129.031 9.59634 129.254 10.0882 129.254 10.6738C129.254 11.2593 129.031 11.7629 128.586 12.1845C128.164 12.5827 127.649 12.7818 127.04 12.7818ZM132.178 32V9.83056H136.956V32H132.178ZM139.67 32V14.6088H144.448V32H139.67ZM142.024 12.7818C141.439 12.7818 140.923 12.5827 140.478 12.1845C140.057 11.7629 139.846 11.2593 139.846 10.6738C139.846 10.0882 140.057 9.59634 140.478 9.19815C140.923 8.77655 141.439 8.56574 142.024 8.56574C142.633 8.56574 143.149 8.77655 143.57 9.19815C144.015 9.59634 144.238 10.0882 144.238 10.6738C144.238 11.2593 144.015 11.7629 143.57 12.1845C143.149 12.5827 142.633 12.7818 142.024 12.7818ZM152.889 32.1405C152.327 32.1405 151.753 32.0937 151.168 32C150.605 31.9063 150.078 31.7306 149.587 31.473C149.118 31.1919 148.732 30.7937 148.427 30.2784C148.146 29.7397 148.005 29.0136 148.005 28.1001V17.3843H146.319V15.0304L148.427 14.6088L149.095 11.4116H152.784V14.6088H155.911V17.3843H152.784V27.2569C152.784 27.6785 152.866 28.0767 153.03 28.4515C153.194 28.8028 153.58 28.9785 154.189 28.9785C154.494 28.9785 154.845 28.9668 155.243 28.9434C155.641 28.8965 155.864 28.8731 155.911 28.8731V31.7189C155.864 31.7189 155.524 31.7892 154.892 31.9297C154.283 32.0703 153.615 32.1405 152.889 32.1405ZM160.829 36.0755C160.103 36.0755 159.389 36.017 158.686 35.8999C157.983 35.8062 157.433 35.7125 157.035 35.6188V33.1243C157.199 33.1711 157.409 33.218 157.667 33.2648C157.948 33.3117 158.253 33.3351 158.58 33.3351C158.862 33.3351 159.178 33.2882 159.529 33.1945C159.88 33.1009 160.103 32.8081 160.197 32.3162C160.22 32.1288 160.232 31.9297 160.232 31.7189C160.255 31.5081 160.232 31.2622 160.162 30.9811L156.789 14.6088H161.743L163.394 27.5029H163.464L165.151 14.6088H169.683L166.486 30.1379C166.064 32.2694 165.396 33.7918 164.483 34.7053C163.569 35.6188 162.352 36.0755 160.829 36.0755Z" fill="#034175"/>
</svg>
