<svg width="121" height="99" viewBox="0 0 121 99" fill="none" xmlns="http://www.w3.org/2000/svg">
<path d="M1.36656 94.6207H-2.71173e-05L2.48812 87.5531H4.06866L6.56026 94.6207H5.19368L3.306 89.0026H3.25078L1.36656 94.6207ZM1.41142 91.8496H5.13846V92.878H1.41142V91.8496ZM8.83097 87.5531V94.6207H7.58172V87.5531H8.83097ZM11.5106 87.5531V94.6207H10.2614V87.5531H11.5106ZM19.3934 89.496C19.3612 89.1947 19.2255 88.96 18.9862 88.792C18.7492 88.6241 18.4409 88.5401 18.0613 88.5401C17.7945 88.5401 17.5656 88.5804 17.3746 88.6609C17.1836 88.7414 17.0376 88.8507 16.9363 88.9887C16.8351 89.1268 16.7833 89.2844 16.781 89.4615C16.781 89.6088 16.8144 89.7365 16.8811 89.8446C16.9501 89.9527 17.0433 90.0447 17.1606 90.1207C17.278 90.1943 17.408 90.2564 17.5506 90.307C17.6932 90.3576 17.837 90.4002 17.982 90.4347L18.6446 90.6003C18.9114 90.6625 19.1679 90.7464 19.4141 90.8523C19.6626 90.9581 19.8846 91.0915 20.0802 91.2526C20.278 91.4136 20.4345 91.608 20.5495 91.8358C20.6645 92.0636 20.722 92.3304 20.722 92.6364C20.722 93.0505 20.6162 93.4152 20.4045 93.7304C20.1929 94.0433 19.8869 94.2883 19.4866 94.4654C19.0886 94.6403 18.6066 94.7277 18.0406 94.7277C17.4908 94.7277 17.0134 94.6426 16.6085 94.4723C16.2059 94.3021 15.8907 94.0536 15.6629 93.7269C15.4375 93.4002 15.3155 93.0022 15.2971 92.5329H16.5567C16.5751 92.7791 16.651 92.9838 16.7845 93.1472C16.9179 93.3105 17.0916 93.4324 17.3056 93.513C17.5218 93.5935 17.7634 93.6338 18.0303 93.6338C18.3087 93.6338 18.5525 93.5923 18.7619 93.5095C18.9735 93.4244 19.1392 93.3071 19.2588 93.1575C19.3785 93.0057 19.4394 92.8285 19.4417 92.6261C19.4394 92.442 19.3854 92.2902 19.2795 92.1705C19.1737 92.0486 19.0253 91.9474 18.8344 91.8669C18.6457 91.784 18.4248 91.7104 18.1718 91.646L17.3677 91.4389C16.7856 91.2894 16.3255 91.0628 15.9873 90.7591C15.6514 90.4531 15.4835 90.047 15.4835 89.5409C15.4835 89.1245 15.5962 88.7598 15.8217 88.4469C16.0494 88.1341 16.3589 87.8913 16.75 87.7188C17.1411 87.5439 17.584 87.4565 18.0786 87.4565C18.5801 87.4565 19.0196 87.5439 19.3969 87.7188C19.7765 87.8913 20.0744 88.1318 20.2907 88.44C20.5069 88.746 20.6185 89.098 20.6254 89.496H19.3934ZM24.3007 94.7243C23.7692 94.7243 23.3102 94.6138 22.9237 94.393C22.5395 94.1698 22.2439 93.8546 22.0368 93.4474C21.8298 93.0379 21.7262 92.5559 21.7262 92.0014C21.7262 91.4562 21.8298 90.9777 22.0368 90.5658C22.2462 90.1517 22.5384 89.8296 22.9134 89.5996C23.2884 89.3672 23.7289 89.251 24.2351 89.251C24.5618 89.251 24.8701 89.3039 25.1599 89.4098C25.4521 89.5133 25.7098 89.6743 25.933 89.8929C26.1584 90.1115 26.3356 90.3898 26.4644 90.728C26.5932 91.0639 26.6577 91.4642 26.6577 91.929V92.312H22.3129V91.47H25.4602C25.4579 91.2307 25.4061 91.0179 25.3049 90.8316C25.2037 90.6429 25.0622 90.4945 24.8804 90.3864C24.701 90.2783 24.4916 90.2242 24.2523 90.2242C23.997 90.2242 23.7727 90.2863 23.5794 90.4105C23.3861 90.5325 23.2355 90.6935 23.1273 90.8937C23.0215 91.0915 22.9674 91.3089 22.9651 91.5459V92.281C22.9651 92.5893 23.0215 92.8538 23.1342 93.0747C23.247 93.2933 23.4046 93.4612 23.607 93.5785C23.8095 93.6936 24.0464 93.7511 24.3179 93.7511C24.4997 93.7511 24.6642 93.7258 24.8114 93.6752C24.9586 93.6222 25.0863 93.5452 25.1945 93.4439C25.3026 93.3427 25.3843 93.2173 25.4395 93.0678L26.6059 93.1989C26.5323 93.5072 26.3919 93.7764 26.1849 94.0065C25.9801 94.2342 25.7179 94.4114 25.3981 94.5379C25.0783 94.6621 24.7125 94.7243 24.3007 94.7243ZM27.8603 94.6207V89.32H29.0716V90.2035H29.1268C29.2234 89.8975 29.3891 89.6617 29.6237 89.496C29.8607 89.3281 30.131 89.2441 30.4347 89.2441C30.5037 89.2441 30.5808 89.2476 30.6659 89.2545C30.7534 89.2591 30.8258 89.2671 30.8833 89.2786V90.4278C30.8304 90.4094 30.7465 90.3933 30.6314 90.3795C30.5187 90.3634 30.4094 90.3553 30.3036 90.3553C30.0758 90.3553 29.8711 90.4048 29.6893 90.5037C29.5099 90.6003 29.3684 90.7349 29.2648 90.9075C29.1613 91.08 29.1095 91.279 29.1095 91.5045V94.6207H27.8603ZM36.7551 89.32L34.8674 94.6207H33.4871L31.5994 89.32H32.9315L34.1496 93.2576H34.2049L35.4265 89.32H36.7551ZM37.7654 94.6207V89.32H39.0146V94.6207H37.7654ZM38.3934 88.5677C38.1956 88.5677 38.0253 88.5022 37.8827 88.371C37.7401 88.2376 37.6687 88.0777 37.6687 87.8913C37.6687 87.7027 37.7401 87.5428 37.8827 87.4117C38.0253 87.2782 38.1956 87.2115 38.3934 87.2115C38.5936 87.2115 38.7638 87.2782 38.9042 87.4117C39.0468 87.5428 39.1181 87.7027 39.1181 87.8913C39.1181 88.0777 39.0468 88.2376 38.9042 88.371C38.7638 88.5022 38.5936 88.5677 38.3934 88.5677ZM42.7572 94.7243C42.228 94.7243 41.7736 94.6081 41.394 94.3757C41.0167 94.1433 40.7257 93.8224 40.5209 93.4129C40.3185 93.0011 40.2172 92.5271 40.2172 91.9911C40.2172 91.4527 40.3208 90.9777 40.5278 90.5658C40.7349 90.1517 41.0271 89.8296 41.4044 89.5996C41.784 89.3672 42.2326 89.251 42.7503 89.251C43.1805 89.251 43.5612 89.3304 43.8925 89.4891C44.2261 89.6456 44.4918 89.8676 44.6897 90.1552C44.8876 90.4405 45.0003 90.774 45.0279 91.156H43.8339C43.7855 90.9006 43.6705 90.6878 43.4888 90.5175C43.3093 90.345 43.0689 90.2587 42.7675 90.2587C42.5121 90.2587 42.2878 90.3277 42.0946 90.4658C41.9013 90.6015 41.7506 90.7971 41.6425 91.0524C41.5367 91.3078 41.4837 91.6138 41.4837 91.9704C41.4837 92.3316 41.5367 92.6422 41.6425 92.9021C41.7483 93.1598 41.8967 93.3588 42.0877 93.4992C42.2809 93.6372 42.5075 93.7062 42.7675 93.7062C42.9516 93.7062 43.1161 93.6717 43.261 93.6027C43.4082 93.5314 43.5313 93.429 43.6303 93.2956C43.7292 93.1621 43.797 92.9999 43.8339 92.809H45.0279C44.998 93.184 44.8876 93.5164 44.6966 93.8063C44.5056 94.0939 44.2457 94.3193 43.9167 94.4827C43.5877 94.6437 43.2012 94.7243 42.7572 94.7243ZM48.5461 94.7243C48.0147 94.7243 47.5557 94.6138 47.1692 94.393C46.785 94.1698 46.4893 93.8546 46.2823 93.4474C46.0752 93.0379 45.9717 92.5559 45.9717 92.0014C45.9717 91.4562 46.0752 90.9777 46.2823 90.5658C46.4916 90.1517 46.7838 89.8296 47.1588 89.5996C47.5338 89.3672 47.9744 89.251 48.4806 89.251C48.8072 89.251 49.1155 89.3039 49.4054 89.4098C49.6976 89.5133 49.9553 89.6743 50.1784 89.8929C50.4039 90.1115 50.581 90.3898 50.7099 90.728C50.8387 91.0639 50.9031 91.4642 50.9031 91.929V92.312H46.5584V91.47H49.7056C49.7033 91.2307 49.6516 91.0179 49.5504 90.8316C49.4491 90.6429 49.3076 90.4945 49.1259 90.3864C48.9464 90.2783 48.7371 90.2242 48.4978 90.2242C48.2424 90.2242 48.0181 90.2863 47.8249 90.4105C47.6316 90.5325 47.4809 90.6935 47.3728 90.8937C47.267 91.0915 47.2129 91.3089 47.2106 91.5459V92.281C47.2106 92.5893 47.267 92.8538 47.3797 93.0747C47.4924 93.2933 47.65 93.4612 47.8525 93.5785C48.0549 93.6936 48.2919 93.7511 48.5634 93.7511C48.7451 93.7511 48.9096 93.7258 49.0569 93.6752C49.2041 93.6222 49.3318 93.5452 49.4399 93.4439C49.5481 93.3427 49.6297 93.2173 49.6849 93.0678L50.8514 93.1989C50.7777 93.5072 50.6374 93.7764 50.4304 94.0065C50.2256 94.2342 49.9633 94.4114 49.6435 94.5379C49.3237 94.6621 48.9579 94.7243 48.5461 94.7243ZM56.2952 90.7211L55.1564 90.8454C55.1242 90.7303 55.0678 90.6222 54.9873 90.521C54.9091 90.4197 54.8033 90.3381 54.6698 90.276C54.5364 90.2138 54.373 90.1828 54.1798 90.1828C53.9198 90.1828 53.7013 90.2391 53.5241 90.3519C53.3493 90.4646 53.263 90.6107 53.2653 90.7902C53.263 90.9443 53.3193 91.0697 53.4344 91.1663C53.5517 91.2629 53.745 91.3423 54.0141 91.4044L54.9183 91.5977C55.4198 91.7058 55.7925 91.8772 56.0364 92.1119C56.2826 92.3465 56.4068 92.6537 56.4091 93.0333C56.4068 93.3669 56.309 93.6614 56.1158 93.9167C55.9248 94.1698 55.6591 94.3677 55.3186 94.5103C54.9781 94.6529 54.587 94.7243 54.1453 94.7243C53.4965 94.7243 52.9743 94.5885 52.5785 94.317C52.1828 94.0433 51.947 93.6625 51.8711 93.1748L53.0893 93.0574C53.1445 93.2967 53.2618 93.4773 53.4413 93.5992C53.6207 93.7212 53.8542 93.7821 54.1418 93.7821C54.4386 93.7821 54.6767 93.7212 54.8562 93.5992C55.0379 93.4773 55.1288 93.3266 55.1288 93.1472C55.1288 92.9953 55.0701 92.8699 54.9528 92.771C54.8378 92.6721 54.6583 92.5962 54.4145 92.5432L53.5103 92.3534C53.0019 92.2476 52.6257 92.0693 52.3818 91.8185C52.138 91.5655 52.0172 91.2457 52.0195 90.8592C52.0172 90.5325 52.1058 90.2495 52.2852 90.0102C52.467 89.7687 52.7189 89.5823 53.041 89.4512C53.3654 89.3177 53.7392 89.251 54.1625 89.251C54.7837 89.251 55.2726 89.3833 55.6292 89.6479C55.9881 89.9125 56.2101 90.2702 56.2952 90.7211ZM66.5118 91.0869C66.5118 91.8484 66.3691 92.5007 66.0838 93.0436C65.8009 93.5843 65.4143 93.9984 64.9243 94.286C64.4366 94.5736 63.8833 94.7174 63.2644 94.7174C62.6455 94.7174 62.0911 94.5736 61.601 94.286C61.1133 93.9961 60.7268 93.5808 60.4415 93.0402C60.1585 92.4972 60.017 91.8461 60.017 91.0869C60.017 90.3254 60.1585 89.6743 60.4415 89.1337C60.7268 88.5907 61.1133 88.1755 61.601 87.8879C62.0911 87.6003 62.6455 87.4565 63.2644 87.4565C63.8833 87.4565 64.4366 87.6003 64.9243 87.8879C65.4143 88.1755 65.8009 88.5907 66.0838 89.1337C66.3691 89.6743 66.5118 90.3254 66.5118 91.0869ZM65.2245 91.0869C65.2245 90.5509 65.1406 90.0988 64.9726 89.7307C64.807 89.3603 64.5769 89.0808 64.2824 88.8921C63.9879 88.7012 63.6486 88.6057 63.2644 88.6057C62.8802 88.6057 62.5408 88.7012 62.2464 88.8921C61.9519 89.0808 61.7207 89.3603 61.5527 89.7307C61.3871 90.0988 61.3042 90.5509 61.3042 91.0869C61.3042 91.623 61.3871 92.0762 61.5527 92.4466C61.7207 92.8147 61.9519 93.0942 62.2464 93.2852C62.5408 93.4739 62.8802 93.5682 63.2644 93.5682C63.6486 93.5682 63.9879 93.4739 64.2824 93.2852C64.5769 93.0942 64.807 92.8147 64.9726 92.4466C65.1406 92.0762 65.2245 91.623 65.2245 91.0869ZM69.062 91.5149V94.6207H67.8127V89.32H69.0068V90.2207H69.0689C69.1908 89.924 69.3852 89.6881 69.6521 89.5133C69.9213 89.3384 70.2537 89.251 70.6494 89.251C71.0152 89.251 71.3339 89.3292 71.6054 89.4857C71.8791 89.6421 72.0908 89.8687 72.2403 90.1655C72.3922 90.4623 72.4669 90.8224 72.4646 91.2457V94.6207H71.2154V91.4389C71.2154 91.0846 71.1234 90.8074 70.9393 90.6073C70.7576 90.4071 70.5056 90.307 70.1836 90.307C69.965 90.307 69.7706 90.3553 69.6003 90.452C69.4324 90.5463 69.3001 90.6832 69.2035 90.8626C69.1092 91.0421 69.062 91.2595 69.062 91.5149ZM76.227 94.7243C75.6956 94.7243 75.2366 94.6138 74.8501 94.393C74.4659 94.1698 74.1702 93.8546 73.9632 93.4474C73.7561 93.0379 73.6526 92.5559 73.6526 92.0014C73.6526 91.4562 73.7561 90.9777 73.9632 90.5658C74.1725 90.1517 74.4647 89.8296 74.8397 89.5996C75.2147 89.3672 75.6553 89.251 76.1615 89.251C76.4881 89.251 76.7964 89.3039 77.0863 89.4098C77.3785 89.5133 77.6362 89.6743 77.8593 89.8929C78.0848 90.1115 78.2619 90.3898 78.3908 90.728C78.5196 91.0639 78.584 91.4642 78.584 91.929V92.312H74.2393V91.47H77.3866C77.3843 91.2307 77.3325 91.0179 77.2313 90.8316C77.13 90.6429 76.9885 90.4945 76.8068 90.3864C76.6273 90.2783 76.418 90.2242 76.1787 90.2242C75.9233 90.2242 75.699 90.2863 75.5058 90.4105C75.3125 90.5325 75.1618 90.6935 75.0537 90.8937C74.9479 91.0915 74.8938 91.3089 74.8915 91.5459V92.281C74.8915 92.5893 74.9479 92.8538 75.0606 93.0747C75.1733 93.2933 75.3309 93.4612 75.5334 93.5785C75.7358 93.6936 75.9728 93.7511 76.2443 93.7511C76.426 93.7511 76.5905 93.7258 76.7378 93.6752C76.885 93.6222 77.0127 93.5452 77.1208 93.4439C77.229 93.3427 77.3106 93.2173 77.3658 93.0678L78.5323 93.1989C78.4587 93.5072 78.3183 93.7764 78.1113 94.0065C77.9065 94.2342 77.6442 94.4114 77.3244 94.5379C77.0046 94.6621 76.6388 94.7243 76.227 94.7243ZM86.2391 89.496C86.2069 89.1947 86.0711 88.96 85.8319 88.792C85.5949 88.6241 85.2866 88.5401 84.907 88.5401C84.6401 88.5401 84.4112 88.5804 84.2203 88.6609C84.0293 88.7414 83.8832 88.8507 83.782 88.9887C83.6808 89.1268 83.629 89.2844 83.6267 89.4615C83.6267 89.6088 83.6601 89.7365 83.7268 89.8446C83.7958 89.9527 83.889 90.0447 84.0063 90.1207C84.1236 90.1943 84.2536 90.2564 84.3963 90.307C84.5389 90.3576 84.6827 90.4002 84.8276 90.4347L85.4902 90.6003C85.7571 90.6625 86.0136 90.7464 86.2598 90.8523C86.5083 90.9581 86.7303 91.0915 86.9258 91.2526C87.1237 91.4136 87.2801 91.608 87.3952 91.8358C87.5102 92.0636 87.5677 92.3304 87.5677 92.6364C87.5677 93.0505 87.4619 93.4152 87.2502 93.7304C87.0386 94.0433 86.7326 94.2883 86.3323 94.4654C85.9342 94.6403 85.4523 94.7277 84.8863 94.7277C84.3364 94.7277 83.8591 94.6426 83.4541 94.4723C83.0515 94.3021 82.7363 94.0536 82.5086 93.7269C82.2831 93.4002 82.1612 93.0022 82.1428 92.5329H83.4024C83.4208 92.7791 83.4967 92.9838 83.6301 93.1472C83.7636 93.3105 83.9373 93.4324 84.1512 93.513C84.3675 93.5935 84.6091 93.6338 84.8759 93.6338C85.1543 93.6338 85.3982 93.5923 85.6076 93.5095C85.8192 93.4244 85.9849 93.3071 86.1045 93.1575C86.2241 93.0057 86.2851 92.8285 86.2874 92.6261C86.2851 92.442 86.231 92.2902 86.1252 92.1705C86.0194 92.0486 85.871 91.9474 85.68 91.8669C85.4914 91.784 85.2705 91.7104 85.0174 91.646L84.2134 91.4389C83.6313 91.2894 83.1712 91.0628 82.833 90.7591C82.4971 90.4531 82.3291 90.047 82.3291 89.5409C82.3291 89.1245 82.4419 88.7598 82.6673 88.4469C82.8951 88.1341 83.2045 87.8913 83.5956 87.7188C83.9867 87.5439 84.4296 87.4565 84.9243 87.4565C85.4258 87.4565 85.8652 87.5439 86.2425 87.7188C86.6221 87.8913 86.9201 88.1318 87.1363 88.44C87.3526 88.746 87.4642 89.098 87.4711 89.496H86.2391ZM91.1118 94.7243C90.5942 94.7243 90.1455 94.6104 89.7659 94.3826C89.3863 94.1548 89.0918 93.8362 88.8825 93.4267C88.6754 93.0172 88.5719 92.5386 88.5719 91.9911C88.5719 91.4435 88.6754 90.9639 88.8825 90.552C89.0918 90.1402 89.3863 89.8204 89.7659 89.5927C90.1455 89.3649 90.5942 89.251 91.1118 89.251C91.6295 89.251 92.0781 89.3649 92.4577 89.5927C92.8373 89.8204 93.1306 90.1402 93.3377 90.552C93.547 90.9639 93.6517 91.4435 93.6517 91.9911C93.6517 92.5386 93.547 93.0172 93.3377 93.4267C93.1306 93.8362 92.8373 94.1548 92.4577 94.3826C92.0781 94.6104 91.6295 94.7243 91.1118 94.7243ZM91.1187 93.7235C91.3994 93.7235 91.6341 93.6464 91.8227 93.4923C92.0114 93.3358 92.1517 93.1265 92.2437 92.8642C92.3381 92.6019 92.3852 92.3097 92.3852 91.9876C92.3852 91.6632 92.3381 91.3699 92.2437 91.1076C92.1517 90.8431 92.0114 90.6326 91.8227 90.4761C91.6341 90.3197 91.3994 90.2414 91.1187 90.2414C90.8311 90.2414 90.5919 90.3197 90.4009 90.4761C90.2123 90.6326 90.0708 90.8431 89.9764 91.1076C89.8844 91.3699 89.8384 91.6632 89.8384 91.9876C89.8384 92.3097 89.8844 92.6019 89.9764 92.8642C90.0708 93.1265 90.2123 93.3358 90.4009 93.4923C90.5919 93.6464 90.8311 93.7235 91.1187 93.7235ZM96.1071 87.5531V94.6207H94.8578V87.5531H96.1071ZM100.916 92.3914V89.32H102.165V94.6207H100.954V93.6786H100.899C100.779 93.9754 100.582 94.2181 100.309 94.4068C100.037 94.5954 99.7024 94.6897 99.3043 94.6897C98.9569 94.6897 98.6498 94.6127 98.3829 94.4585C98.1184 94.3021 97.9113 94.0755 97.7618 93.7787C97.6122 93.4796 97.5374 93.1184 97.5374 92.6951V89.32H98.7867V92.5018C98.7867 92.8377 98.8787 93.1046 99.0628 93.3025C99.2468 93.5003 99.4884 93.5992 99.7875 93.5992C99.9715 93.5992 100.15 93.5544 100.322 93.4647C100.495 93.3749 100.636 93.2415 100.747 93.0643C100.86 92.8849 100.916 92.6606 100.916 92.3914ZM106.242 89.32V90.2863H103.195V89.32H106.242ZM103.948 88.0501H105.197V93.0264C105.197 93.1943 105.222 93.3232 105.273 93.4129C105.326 93.5003 105.395 93.5601 105.48 93.5923C105.565 93.6245 105.659 93.6407 105.763 93.6407C105.841 93.6407 105.912 93.6349 105.977 93.6234C106.043 93.6119 106.094 93.6015 106.129 93.5923L106.339 94.569C106.272 94.592 106.177 94.6173 106.053 94.6449C105.931 94.6725 105.781 94.6886 105.604 94.6932C105.291 94.7024 105.009 94.6552 104.759 94.5517C104.508 94.4459 104.309 94.2825 104.162 94.0617C104.017 93.8408 103.945 93.5647 103.948 93.2334V88.0501ZM107.433 94.6207V89.32H108.682V94.6207H107.433ZM108.061 88.5677C107.863 88.5677 107.693 88.5022 107.55 88.371C107.408 88.2376 107.336 88.0777 107.336 87.8913C107.336 87.7027 107.408 87.5428 107.55 87.4117C107.693 87.2782 107.863 87.2115 108.061 87.2115C108.261 87.2115 108.432 87.2782 108.572 87.4117C108.714 87.5428 108.786 87.7027 108.786 87.8913C108.786 88.0777 108.714 88.2376 108.572 88.371C108.432 88.5022 108.261 88.5677 108.061 88.5677ZM112.425 94.7243C111.907 94.7243 111.459 94.6104 111.079 94.3826C110.699 94.1548 110.405 93.8362 110.195 93.4267C109.988 93.0172 109.885 92.5386 109.885 91.9911C109.885 91.4435 109.988 90.9639 110.195 90.552C110.405 90.1402 110.699 89.8204 111.079 89.5927C111.459 89.3649 111.907 89.251 112.425 89.251C112.942 89.251 113.391 89.3649 113.771 89.5927C114.15 89.8204 114.444 90.1402 114.651 90.552C114.86 90.9639 114.965 91.4435 114.965 91.9911C114.965 92.5386 114.86 93.0172 114.651 93.4267C114.444 93.8362 114.15 94.1548 113.771 94.3826C113.391 94.6104 112.942 94.7243 112.425 94.7243ZM112.432 93.7235C112.712 93.7235 112.947 93.6464 113.136 93.4923C113.324 93.3358 113.465 93.1265 113.557 92.8642C113.651 92.6019 113.698 92.3097 113.698 91.9876C113.698 91.6632 113.651 91.3699 113.557 91.1076C113.465 90.8431 113.324 90.6326 113.136 90.4761C112.947 90.3197 112.712 90.2414 112.432 90.2414C112.144 90.2414 111.905 90.3197 111.714 90.4761C111.525 90.6326 111.384 90.8431 111.289 91.1076C111.197 91.3699 111.151 91.6632 111.151 91.9876C111.151 92.3097 111.197 92.6019 111.289 92.8642C111.384 93.1265 111.525 93.3358 111.714 93.4923C111.905 93.6464 112.144 93.7235 112.432 93.7235ZM117.42 91.5149V94.6207H116.171V89.32H117.365V90.2207H117.427C117.549 89.924 117.743 89.6881 118.01 89.5133C118.279 89.3384 118.612 89.251 119.008 89.251C119.373 89.251 119.692 89.3292 119.963 89.4857C120.237 89.6421 120.449 89.8687 120.598 90.1655C120.75 90.4623 120.825 90.8224 120.823 91.2457V94.6207H119.573V91.4389C119.573 91.0846 119.481 90.8074 119.297 90.6073C119.116 90.4071 118.864 90.307 118.542 90.307C118.323 90.307 118.129 90.3553 117.958 90.452C117.79 90.5463 117.658 90.6832 117.562 90.8626C117.467 91.0421 117.42 91.2595 117.42 91.5149Z" fill="#37B7FE"/>
<path d="M5.29041 42V14.5142H18.3124V19.0254H12.034V25.3504H17.5218V30.4197H12.034V37.5818H18.3124V42H5.29041ZM28.5001 42.3721C26.4537 42.3721 24.857 42.124 23.7098 41.6279C22.5936 41.1009 21.8185 40.3102 21.3845 39.2561C20.9504 38.1709 20.7334 36.8377 20.7334 35.2565V33.5822H27.0583V36.6517C27.0583 37.4578 27.1514 38.0469 27.3374 38.4189C27.5234 38.791 27.8955 38.977 28.4536 38.977C28.9186 38.977 29.2442 38.822 29.4302 38.512C29.6472 38.2019 29.7558 37.7678 29.7558 37.2098V35.2565C29.7558 34.4813 29.6007 33.9077 29.2907 33.5357C29.0116 33.1326 28.5776 32.8071 27.9885 32.559C27.3994 32.311 26.6863 32.0164 25.8492 31.6754C25.105 31.3653 24.3764 31.0088 23.6633 30.6057C22.9812 30.1717 22.4076 29.5981 21.9425 28.885C21.5085 28.1719 21.2914 27.2572 21.2914 26.141V24.8388C21.2914 22.7615 21.8495 21.2113 22.9657 20.1881C24.0819 19.1339 26.1127 18.6069 29.0581 18.6069C31.0115 18.6069 32.5307 18.8549 33.6159 19.351C34.701 19.8161 35.4606 20.5602 35.8947 21.5833C36.3288 22.6065 36.5458 23.8777 36.5458 25.3969V26.9782H30.4069V24.2807C30.4069 23.4436 30.3138 22.8545 30.1278 22.5135C29.9418 22.1414 29.6007 21.9554 29.1047 21.9554C28.5776 21.9554 28.221 22.1259 28.035 22.467C27.849 22.777 27.7559 23.1646 27.7559 23.6296V25.5364C27.7559 26.2496 27.973 26.8076 28.407 27.2107C28.8411 27.6138 29.3837 27.9238 30.0348 28.1408C30.7169 28.3579 31.3835 28.5904 32.0346 28.8385C32.8097 29.1175 33.5383 29.4586 34.2205 29.8616C34.9026 30.2647 35.4606 30.8073 35.8947 31.4894C36.3288 32.1715 36.5458 33.0551 36.5458 34.1403V35.675C36.5458 37.1322 36.2978 38.3569 35.8017 39.3491C35.3056 40.3412 34.484 41.1009 33.3368 41.6279C32.1896 42.124 30.5774 42.3721 28.5001 42.3721ZM47.1462 42.186C46.4021 42.186 45.6425 42.124 44.8673 42C44.1232 41.876 43.4256 41.6434 42.7745 41.3024C42.1544 40.9303 41.6428 40.4033 41.2398 39.7211C40.8677 39.008 40.6817 38.0469 40.6817 36.8377V22.653H38.4493V19.537L41.2398 18.9789L42.1234 14.7468H47.0067V18.9789H51.1458V22.653H47.0067V35.7215C47.0067 36.2796 47.1152 36.8067 47.3322 37.3028C47.5493 37.7678 48.0608 38.0004 48.867 38.0004C49.27 38.0004 49.7351 37.9849 50.2622 37.9539C50.7893 37.8919 51.0838 37.8609 51.1458 37.8609V41.6279C51.0838 41.6279 50.6342 41.721 49.7971 41.907C48.991 42.093 48.1073 42.186 47.1462 42.186ZM57.9355 42.3721C57.0984 42.3721 56.3232 42.248 55.6101 42C54.928 41.783 54.3699 41.3489 53.9359 40.6978C53.5328 40.0157 53.3313 39.0235 53.3313 37.7213V34.2798C53.3313 32.8846 53.7343 31.7529 54.5405 30.8848C55.3776 29.9856 56.7418 29.2105 58.6331 28.5594C59.5633 28.1874 60.2764 27.8773 60.7724 27.6293C61.2995 27.3502 61.6716 27.0092 61.8886 26.6061C62.1056 26.172 62.2142 25.5674 62.2142 24.7923V23.3971C62.2142 23.0561 62.1522 22.777 62.0281 22.56C61.9351 22.3429 61.7801 22.1724 61.5631 22.0484C61.377 21.9244 61.1445 21.8624 60.8655 21.8624C60.3384 21.8624 59.9818 22.0949 59.7958 22.56C59.6098 23.0251 59.5167 23.8467 59.5167 25.0249V26.9782H53.7964V24.4203C53.7964 23.2731 53.9669 22.2654 54.3079 21.3973C54.649 20.4982 55.3156 19.8006 56.3077 19.3045C57.3309 18.7774 58.8501 18.5139 60.8655 18.5139C62.9118 18.5139 64.493 18.6844 65.6092 19.0254C66.7254 19.3355 67.5005 19.8936 67.9346 20.6997C68.3996 21.4748 68.6322 22.5445 68.6322 23.9087V42H62.3072V39.5816C62.0901 40.4188 61.5476 41.1009 60.6794 41.6279C59.8423 42.124 58.9277 42.3721 57.9355 42.3721ZM60.7259 38.2329C61.315 38.2329 61.7026 38.0004 61.8886 37.5353C62.0746 37.0392 62.1677 36.3106 62.1677 35.3495V30.0942C62.0746 30.3112 61.8576 30.5127 61.5166 30.6987C61.2065 30.8538 60.912 31.0398 60.6329 31.2568C60.2299 31.5669 59.9198 31.8769 59.7028 32.187C59.5167 32.497 59.4237 32.9466 59.4237 33.5357V36.1401C59.4237 36.6052 59.4702 36.9927 59.5633 37.3028C59.6563 37.6128 59.7958 37.8454 59.9818 38.0004C60.1678 38.1554 60.4159 38.2329 60.7259 38.2329ZM79.5159 42.186C78.7718 42.186 78.0122 42.124 77.2371 42C76.493 41.876 75.7954 41.6434 75.1443 41.3024C74.5242 40.9303 74.0126 40.4033 73.6095 39.7211C73.2375 39.008 73.0514 38.0469 73.0514 36.8377V22.653H70.8191V19.537L73.6095 18.9789L74.4932 14.7468H79.3764V18.9789H83.5156V22.653H79.3764V35.7215C79.3764 36.2796 79.4849 36.8067 79.702 37.3028C79.919 37.7678 80.4306 38.0004 81.2367 38.0004C81.6398 38.0004 82.1048 37.9849 82.6319 37.9539C83.159 37.8919 83.4536 37.8609 83.5156 37.8609V41.6279C83.4536 41.6279 83.004 41.721 82.1669 41.907C81.3607 42.093 80.4771 42.186 79.5159 42.186ZM93.4256 42.3721C91.8133 42.3721 90.4336 42.2015 89.2865 41.8605C88.1393 41.4884 87.2556 40.7443 86.6355 39.6281C86.0154 38.481 85.7054 36.7447 85.7054 34.4193V24.5598C85.7054 22.2344 86.3565 20.6532 87.6587 19.8161C88.9919 18.9479 90.9142 18.5139 93.4256 18.5139C95.906 18.5139 97.7973 18.9479 99.0995 19.8161C100.402 20.6532 101.053 22.2344 101.053 24.5598V30.9778H92.0304V37.1167C92.0304 37.8609 92.1389 38.3724 92.3559 38.6515C92.604 38.9305 92.9605 39.07 93.4256 39.07C93.8907 39.07 94.2162 38.9305 94.4022 38.6515C94.6193 38.3724 94.7278 37.8609 94.7278 37.1167V33.2101H101.053V34.3728C101.053 36.7292 100.743 38.481 100.123 39.6281C99.5335 40.7443 98.6654 41.4884 97.5182 41.8605C96.4021 42.2015 95.0378 42.3721 93.4256 42.3721ZM92.0304 28.1874H94.7278V24.1877C94.7278 23.4746 94.6193 22.9785 94.4022 22.6995C94.2162 22.4205 93.8907 22.2809 93.4256 22.2809C92.9605 22.2809 92.604 22.4205 92.3559 22.6995C92.1389 22.9785 92.0304 23.4746 92.0304 24.1877V28.1874Z" fill="#37B7FE"/>
<path d="M5.48806 77.2583V49.7725H18.5101V54.2837H12.2316V60.6087H17.7195V65.678H12.2316V77.2583H5.48806ZM25.173 77.6304C24.3358 77.6304 23.5607 77.5063 22.8476 77.2583C22.1655 77.0413 21.6074 76.6072 21.1733 75.9561C20.7703 75.274 20.5688 74.2818 20.5688 72.9796V69.5381C20.5688 68.1429 20.9718 67.0112 21.7779 66.1431C22.6151 65.2439 23.9793 64.4688 25.8706 63.8177C26.8007 63.4457 27.5138 63.1356 28.0099 62.8876C28.537 62.6085 28.909 62.2675 29.1261 61.8644C29.3431 61.4303 29.4516 60.8257 29.4516 60.0506V58.6554C29.4516 58.3144 29.3896 58.0353 29.2656 57.8183C29.1726 57.6012 29.0176 57.4307 28.8005 57.3067C28.6145 57.1827 28.382 57.1207 28.1029 57.1207C27.5758 57.1207 27.2193 57.3532 27.0333 57.8183C26.8472 58.2834 26.7542 59.105 26.7542 60.2832V62.2365H21.0338V59.6786C21.0338 58.5314 21.2044 57.5237 21.5454 56.6556C21.8865 55.7565 22.5531 55.0589 23.5452 54.5628C24.5684 54.0357 26.0876 53.7722 28.1029 53.7722C30.1492 53.7722 31.7305 53.9427 32.8467 54.2837C33.9628 54.5938 34.738 55.1519 35.172 55.958C35.6371 56.7331 35.8696 57.8028 35.8696 59.167V77.2583H29.5446V74.8399C29.3276 75.6771 28.785 76.3592 27.9169 76.8862C27.0798 77.3823 26.1651 77.6304 25.173 77.6304ZM27.9634 73.4912C28.5525 73.4912 28.9401 73.2587 29.1261 72.7936C29.3121 72.2975 29.4051 71.5689 29.4051 70.6078V65.3525C29.3121 65.5695 29.0951 65.771 28.754 65.957C28.444 66.1121 28.1494 66.2981 27.8704 66.5151C27.4673 66.8252 27.1573 67.1352 26.9402 67.4453C26.7542 67.7553 26.6612 68.2049 26.6612 68.794V71.3984C26.6612 71.8635 26.7077 72.251 26.8007 72.5611C26.8937 72.8711 27.0333 73.1037 27.2193 73.2587C27.4053 73.4137 27.6534 73.4912 27.9634 73.4912ZM46.5674 77.6304C44.9551 77.6304 43.5754 77.4598 42.4282 77.1188C41.2811 76.7777 40.3974 76.0491 39.7773 74.9329C39.1572 73.8168 38.8472 72.127 38.8472 69.8637V60.2367C38.8472 57.7873 39.4983 56.113 40.8005 55.2139C42.1337 54.3147 44.056 53.8652 46.5674 53.8652C49.0478 53.8652 50.9391 54.2992 52.2413 55.1674C53.5435 56.0045 54.1946 57.5547 54.1946 59.8181V63.3526H47.8696V59.446C47.8696 58.7329 47.7611 58.2368 47.544 57.9578C47.358 57.6788 47.0325 57.5392 46.5674 57.5392C46.1023 57.5392 45.7458 57.6788 45.4977 57.9578C45.2807 58.2368 45.1722 58.7329 45.1722 59.446V72.003C45.1722 72.7161 45.2807 73.2277 45.4977 73.5377C45.7458 73.8168 46.1023 73.9563 46.5674 73.9563C47.0325 73.9563 47.358 73.8168 47.544 73.5377C47.7611 73.2587 47.8696 72.7471 47.8696 72.003V67.6313H54.1946V69.8171C54.1946 72.1115 53.8845 73.8168 53.2644 74.9329C52.6753 76.0491 51.8072 76.7777 50.66 77.1188C49.5438 77.4598 48.1796 77.6304 46.5674 77.6304ZM57.2651 77.2583V54.2372H63.5901V77.2583H57.2651ZM60.3811 51.8188C59.606 51.8188 58.9239 51.5553 58.3348 51.0282C57.7767 50.4701 57.4977 49.8035 57.4977 49.0284C57.4977 48.2533 57.7767 47.6022 58.3348 47.0751C58.9239 46.517 59.606 46.238 60.3811 46.238C61.1872 46.238 61.8693 46.517 62.4274 47.0751C63.0165 47.6022 63.3111 48.2533 63.3111 49.0284C63.3111 49.8035 63.0165 50.4701 62.4274 51.0282C61.8693 51.5553 61.1872 51.8188 60.3811 51.8188ZM67.1824 77.2583V47.9122H73.5074V77.2583H67.1824ZM77.0997 77.2583V54.2372H83.4247V77.2583H77.0997ZM80.2157 51.8188C79.4406 51.8188 78.7585 51.5553 78.1694 51.0282C77.6113 50.4701 77.3323 49.8035 77.3323 49.0284C77.3323 48.2533 77.6113 47.6022 78.1694 47.0751C78.7585 46.517 79.4406 46.238 80.2157 46.238C81.0218 46.238 81.704 46.517 82.262 47.0751C82.8511 47.6022 83.1457 48.2533 83.1457 49.0284C83.1457 49.8035 82.8511 50.4701 82.262 51.0282C81.704 51.5553 81.0218 51.8188 80.2157 51.8188ZM94.5977 77.4443C93.8536 77.4443 93.094 77.3823 92.3189 77.2583C91.5747 77.1343 90.8771 76.9017 90.226 76.5607C89.6059 76.1886 89.0944 75.6616 88.6913 74.9794C88.3192 74.2663 88.1332 73.3052 88.1332 72.096V57.9113H85.9009V54.7953L88.6913 54.2372L89.5749 50.0051H94.4582V54.2372H98.5973V57.9113H94.4582V70.9798C94.4582 71.5379 94.5667 72.065 94.7837 72.5611C95.0008 73.0261 95.5124 73.2587 96.3185 73.2587C96.7215 73.2587 97.1866 73.2432 97.7137 73.2122C98.2408 73.1502 98.5353 73.1192 98.5973 73.1192V76.8862C98.5353 76.8862 98.0858 76.9793 97.2486 77.1653C96.4425 77.3513 95.5589 77.4443 94.5977 77.4443ZM105.108 82.6531C104.147 82.6531 103.201 82.5756 102.271 82.4206C101.341 82.2966 100.612 82.1726 100.085 82.0485V78.7465C100.302 78.8085 100.581 78.8706 100.922 78.9326C101.294 78.9946 101.697 79.0256 102.132 79.0256C102.504 79.0256 102.922 78.9636 103.387 78.8395C103.852 78.7155 104.147 78.328 104.271 77.6769C104.302 77.4288 104.317 77.1653 104.317 76.8862C104.348 76.6072 104.317 76.2816 104.224 75.9096L99.7597 54.2372H106.317L108.503 71.3054H108.596L110.828 54.2372H116.828L112.596 74.7934C112.038 77.6149 111.154 79.6302 109.945 80.8394C108.736 82.0485 107.123 82.6531 105.108 82.6531Z" fill="#034175"/>
</svg>
