<svg width="29" height="29" viewBox="0 0 29 29" fill="none" xmlns="http://www.w3.org/2000/svg">
<path d="M12.0857 6.04167C12.0857 5.40073 12.3403 4.78604 12.7935 4.33283C13.2467 3.87961 13.8614 3.625 14.5024 3.625C15.1433 3.625 15.758 3.87961 16.2112 4.33283C16.6644 4.78604 16.919 5.40073 16.919 6.04167C18.3067 6.69782 19.4896 7.71923 20.3411 8.9964C21.1925 10.2736 21.6804 11.7584 21.7524 13.2917V16.9167C21.8433 17.6679 22.1093 18.3873 22.5291 19.0169C22.9488 19.6465 23.5106 20.1688 24.169 20.5417H4.83569C5.49416 20.1688 6.05588 19.6465 6.47563 19.0169C6.89538 18.3873 7.16143 17.6679 7.25236 16.9167V13.2917C7.32433 11.7584 7.81218 10.2736 8.66363 8.9964C9.51508 7.71923 10.698 6.69782 12.0857 6.04167Z" stroke="black" stroke-width="1.5" stroke-linecap="round" stroke-linejoin="round"/>
<path d="M10.875 20.5464V21.7547C10.875 22.7161 11.2569 23.6382 11.9367 24.318C12.6166 24.9978 13.5386 25.3797 14.5 25.3797C15.4614 25.3797 16.3834 24.9978 17.0633 24.318C17.7431 23.6382 18.125 22.7161 18.125 21.7547V20.5464" stroke="black" stroke-width="1.5" stroke-linecap="round" stroke-linejoin="round"/>
</svg>
