<svg width="29" height="29" viewBox="0 0 29 29" fill="none" xmlns="http://www.w3.org/2000/svg">
<path d="M21.9191 26.1242C20.8558 26.4383 19.5991 26.5833 18.125 26.5833H10.875C9.40081 26.5833 8.14414 26.4383 7.08081 26.1242C7.34664 22.9825 10.5729 20.5054 14.5 20.5054C18.4271 20.5054 21.6533 22.9825 21.9191 26.1242Z" stroke="black" stroke-width="1.5" stroke-linecap="round" stroke-linejoin="round"/>
<path d="M18.125 2.4165H10.875C4.83335 2.4165 2.41669 4.83317 2.41669 10.8748V18.1248C2.41669 22.6923 3.79419 25.1936 7.08085 26.124C7.34669 22.9823 10.5729 20.5052 14.5 20.5052C18.4271 20.5052 21.6534 22.9823 21.9192 26.124C25.2059 25.1936 26.5834 22.6923 26.5834 18.1248V10.8748C26.5834 4.83317 24.1667 2.4165 18.125 2.4165ZM14.5 17.1219C12.1075 17.1219 10.1742 15.1765 10.1742 12.784C10.1742 10.3915 12.1075 8.45817 14.5 8.45817C16.8925 8.45817 18.8259 10.3915 18.8259 12.784C18.8259 15.1765 16.8925 17.1219 14.5 17.1219Z" stroke="black" stroke-width="1.5" stroke-linecap="round" stroke-linejoin="round"/>
<path d="M18.8259 12.7844C18.8259 15.1769 16.8925 17.1222 14.5 17.1222C12.1075 17.1222 10.1742 15.1769 10.1742 12.7844C10.1742 10.3919 12.1075 8.4585 14.5 8.4585C16.8925 8.4585 18.8259 10.3919 18.8259 12.7844Z" stroke="black" stroke-width="1.5" stroke-linecap="round" stroke-linejoin="round"/>
</svg>
